<mxfile host="65bd71144e" scale="1" border="5">
    <diagram id="A7fwIA8SNOv4WBn-th3X" name="Page-1">
        <mxGraphModel dx="1714" dy="980" grid="1" gridSize="10" guides="1" tooltips="1" connect="1" arrows="1" fold="1" page="1" pageScale="1" pageWidth="1100" pageHeight="850" background="#CCCCCC" math="0" shadow="0">
            <root>
                <mxCell id="0"/>
                <mxCell id="1" parent="0"/>
                <mxCell id="2OSXexaAotzXnG-Uo7v5-268" value="" style="group" parent="1" vertex="1" connectable="0">
                    <mxGeometry x="300" y="120" width="1600" height="1210" as="geometry"/>
                </mxCell>
                <mxCell id="2" value="" style="rounded=0;whiteSpace=wrap;html=1;fillColor=#cce5ff;strokeColor=#36393d;" parent="2OSXexaAotzXnG-Uo7v5-268" vertex="1">
                    <mxGeometry x="140" y="480" width="10" height="160" as="geometry"/>
                </mxCell>
                <mxCell id="3" value="" style="rounded=0;whiteSpace=wrap;html=1;fillColor=#cce5ff;strokeColor=#36393d;" parent="2OSXexaAotzXnG-Uo7v5-268" vertex="1">
                    <mxGeometry x="220" y="480" width="10" height="160" as="geometry"/>
                </mxCell>
                <mxCell id="4" value="" style="rounded=0;whiteSpace=wrap;html=1;fillColor=#cce5ff;strokeColor=#36393d;" parent="2OSXexaAotzXnG-Uo7v5-268" vertex="1">
                    <mxGeometry x="220" y="680" width="20" height="120" as="geometry"/>
                </mxCell>
                <mxCell id="5" value="" style="rounded=0;whiteSpace=wrap;html=1;fillColor=#cce5ff;strokeColor=#36393d;" parent="2OSXexaAotzXnG-Uo7v5-268" vertex="1">
                    <mxGeometry x="300" y="680" width="20" height="120" as="geometry"/>
                </mxCell>
                <mxCell id="6" value="" style="rounded=0;whiteSpace=wrap;html=1;fillColor=#cce5ff;strokeColor=#36393d;" parent="2OSXexaAotzXnG-Uo7v5-268" vertex="1">
                    <mxGeometry x="300" y="840" width="30" height="80" as="geometry"/>
                </mxCell>
                <mxCell id="7" value="" style="rounded=0;whiteSpace=wrap;html=1;fillColor=#cce5ff;strokeColor=#36393d;" parent="2OSXexaAotzXnG-Uo7v5-268" vertex="1">
                    <mxGeometry x="380" y="840" width="30" height="80" as="geometry"/>
                </mxCell>
                <mxCell id="8" value="" style="rounded=0;whiteSpace=wrap;html=1;fillColor=#cce5ff;strokeColor=#36393d;" parent="2OSXexaAotzXnG-Uo7v5-268" vertex="1">
                    <mxGeometry x="380" y="960" width="40" height="40" as="geometry"/>
                </mxCell>
                <mxCell id="9" value="" style="rounded=0;whiteSpace=wrap;html=1;fillColor=#cce5ff;strokeColor=#36393d;" parent="2OSXexaAotzXnG-Uo7v5-268" vertex="1">
                    <mxGeometry x="460" y="960" width="40" height="40" as="geometry"/>
                </mxCell>
                <mxCell id="10" value="" style="rounded=0;whiteSpace=wrap;html=1;fillColor=#cce5ff;strokeColor=#36393d;" parent="2OSXexaAotzXnG-Uo7v5-268" vertex="1">
                    <mxGeometry x="460" y="1040" width="50" height="20" as="geometry"/>
                </mxCell>
                <mxCell id="11" value="" style="rounded=0;whiteSpace=wrap;html=1;fillColor=#cce5ff;strokeColor=#36393d;" parent="2OSXexaAotzXnG-Uo7v5-268" vertex="1">
                    <mxGeometry x="580" y="1040" width="100" height="20" as="geometry"/>
                </mxCell>
                <mxCell id="12" value="" style="rounded=0;whiteSpace=wrap;html=1;fillColor=#cce5ff;strokeColor=#36393d;" parent="2OSXexaAotzXnG-Uo7v5-268" vertex="1">
                    <mxGeometry x="740" y="1040" width="100" height="20" as="geometry"/>
                </mxCell>
                <mxCell id="14" value="Attention map&lt;br&gt;(t-1, t)" style="rounded=1;whiteSpace=wrap;html=1;fontColor=#000000;fillColor=#EEEEEE;strokeColor=#000000;" parent="2OSXexaAotzXnG-Uo7v5-268" vertex="1">
                    <mxGeometry y="60" width="100" height="40" as="geometry"/>
                </mxCell>
                <mxCell id="17" value="" style="rounded=0;whiteSpace=wrap;html=1;fillColor=#cce5ff;strokeColor=#36393d;" parent="2OSXexaAotzXnG-Uo7v5-268" vertex="1">
                    <mxGeometry x="1352.5" y="480" width="10" height="160" as="geometry"/>
                </mxCell>
                <mxCell id="18" value="" style="rounded=0;whiteSpace=wrap;html=1;fillColor=#cce5ff;strokeColor=#36393d;" parent="2OSXexaAotzXnG-Uo7v5-268" vertex="1">
                    <mxGeometry x="1432.5" y="480" width="10" height="160" as="geometry"/>
                </mxCell>
                <mxCell id="19" value="" style="rounded=0;whiteSpace=wrap;html=1;fillColor=#cce5ff;strokeColor=#36393d;" parent="2OSXexaAotzXnG-Uo7v5-268" vertex="1">
                    <mxGeometry x="1200" y="680" width="20" height="120" as="geometry"/>
                </mxCell>
                <mxCell id="20" value="" style="rounded=0;whiteSpace=wrap;html=1;fillColor=#cce5ff;strokeColor=#36393d;" parent="2OSXexaAotzXnG-Uo7v5-268" vertex="1">
                    <mxGeometry x="1280" y="680" width="20" height="120" as="geometry"/>
                </mxCell>
                <mxCell id="21" value="" style="rounded=0;whiteSpace=wrap;html=1;fillColor=#CCE5FF;strokeColor=#36393d;" parent="2OSXexaAotzXnG-Uo7v5-268" vertex="1">
                    <mxGeometry x="1030" y="840" width="30" height="80" as="geometry"/>
                </mxCell>
                <mxCell id="22" value="" style="rounded=0;whiteSpace=wrap;html=1;fillColor=#cce5ff;strokeColor=#36393d;" parent="2OSXexaAotzXnG-Uo7v5-268" vertex="1">
                    <mxGeometry x="1110" y="840" width="30" height="80" as="geometry"/>
                </mxCell>
                <mxCell id="23" value="" style="rounded=0;whiteSpace=wrap;html=1;fillColor=#cce5ff;strokeColor=#36393d;" parent="2OSXexaAotzXnG-Uo7v5-268" vertex="1">
                    <mxGeometry x="860" y="960" width="40" height="40" as="geometry"/>
                </mxCell>
                <mxCell id="24" value="" style="rounded=0;whiteSpace=wrap;html=1;fillColor=#cce5ff;strokeColor=#36393d;" parent="2OSXexaAotzXnG-Uo7v5-268" vertex="1">
                    <mxGeometry x="940" y="960" width="40" height="40" as="geometry"/>
                </mxCell>
                <mxCell id="61" value="" style="endArrow=classic;html=1;fillColor=default;strokeColor=default;jumpStyle=none;targetPerimeterSpacing=0;dashed=1;strokeWidth=3;entryX=0;entryY=0.5;entryDx=0;entryDy=0;" parent="2OSXexaAotzXnG-Uo7v5-268" target="103" edge="1">
                    <mxGeometry width="50" height="50" relative="1" as="geometry">
                        <mxPoint x="240" y="559.5" as="sourcePoint"/>
                        <mxPoint x="840" y="560" as="targetPoint"/>
                    </mxGeometry>
                </mxCell>
                <mxCell id="62" value="" style="endArrow=classic;html=1;fillColor=default;strokeColor=default;jumpStyle=none;targetPerimeterSpacing=0;dashed=1;strokeWidth=3;entryX=0;entryY=0.5;entryDx=0;entryDy=0;" parent="2OSXexaAotzXnG-Uo7v5-268" target="104" edge="1">
                    <mxGeometry width="50" height="50" relative="1" as="geometry">
                        <mxPoint x="330" y="739.5" as="sourcePoint"/>
                        <mxPoint x="830" y="740" as="targetPoint"/>
                    </mxGeometry>
                </mxCell>
                <mxCell id="63" value="" style="endArrow=classic;html=1;fillColor=default;strokeColor=#A1A1A1;jumpStyle=none;targetPerimeterSpacing=0;dashed=1;strokeWidth=3;entryX=0;entryY=0.5;entryDx=0;entryDy=0;" parent="2OSXexaAotzXnG-Uo7v5-268" target="105" edge="1">
                    <mxGeometry width="50" height="50" relative="1" as="geometry">
                        <mxPoint x="420" y="880" as="sourcePoint"/>
                        <mxPoint x="740" y="881" as="targetPoint"/>
                    </mxGeometry>
                </mxCell>
                <mxCell id="64" value="" style="endArrow=classic;html=1;fillColor=default;strokeColor=#A1A1A1;jumpStyle=none;targetPerimeterSpacing=0;dashed=1;strokeWidth=3;entryX=0;entryY=0.5;entryDx=0;entryDy=0;" parent="2OSXexaAotzXnG-Uo7v5-268" target="106" edge="1">
                    <mxGeometry width="50" height="50" relative="1" as="geometry">
                        <mxPoint x="510" y="979.25" as="sourcePoint"/>
                        <mxPoint x="710" y="981" as="targetPoint"/>
                    </mxGeometry>
                </mxCell>
                <mxCell id="70" value="" style="shape=flexArrow;endArrow=classic;html=1;endWidth=10.333333333333334;endSize=3.61;fillColor=#a20025;strokeColor=#6F0000;" parent="2OSXexaAotzXnG-Uo7v5-268" edge="1">
                    <mxGeometry width="50" height="50" relative="1" as="geometry">
                        <mxPoint x="224.82999999999998" y="650" as="sourcePoint"/>
                        <mxPoint x="225" y="670" as="targetPoint"/>
                    </mxGeometry>
                </mxCell>
                <mxCell id="71" value="" style="shape=flexArrow;endArrow=classic;html=1;endWidth=10.333333333333334;endSize=3.61;fillColor=#a20025;strokeColor=#6F0000;" parent="2OSXexaAotzXnG-Uo7v5-268" edge="1">
                    <mxGeometry width="50" height="50" relative="1" as="geometry">
                        <mxPoint x="309.75999999999993" y="810" as="sourcePoint"/>
                        <mxPoint x="309.93" y="830" as="targetPoint"/>
                    </mxGeometry>
                </mxCell>
                <mxCell id="72" value="" style="shape=flexArrow;endArrow=classic;html=1;endWidth=10.333333333333334;endSize=3.61;fillColor=#a20025;strokeColor=#6F0000;" parent="2OSXexaAotzXnG-Uo7v5-268" edge="1">
                    <mxGeometry width="50" height="50" relative="1" as="geometry">
                        <mxPoint x="394.76" y="930" as="sourcePoint"/>
                        <mxPoint x="394.93000000000006" y="950" as="targetPoint"/>
                    </mxGeometry>
                </mxCell>
                <mxCell id="73" value="" style="shape=flexArrow;endArrow=classic;html=1;endWidth=10.333333333333334;endSize=3.61;fillColor=#a20025;strokeColor=#6F0000;" parent="2OSXexaAotzXnG-Uo7v5-268" edge="1">
                    <mxGeometry width="50" height="50" relative="1" as="geometry">
                        <mxPoint x="479.76" y="1010" as="sourcePoint"/>
                        <mxPoint x="479.93000000000006" y="1030" as="targetPoint"/>
                    </mxGeometry>
                </mxCell>
                <mxCell id="81" value="" style="shape=flexArrow;endArrow=classic;html=1;endWidth=8.571428571428571;endSize=3.704761904761905;fillColor=#0050ef;strokeColor=#001DBC;" parent="2OSXexaAotzXnG-Uo7v5-268" edge="1">
                    <mxGeometry width="50" height="50" relative="1" as="geometry">
                        <mxPoint x="1392.5" y="559.5799999999999" as="sourcePoint"/>
                        <mxPoint x="1412.5" y="559.69" as="targetPoint"/>
                    </mxGeometry>
                </mxCell>
                <mxCell id="82" value="" style="shape=flexArrow;endArrow=classic;html=1;endWidth=8.571428571428571;endSize=3.704761904761905;fillColor=#0050ef;strokeColor=#001DBC;" parent="2OSXexaAotzXnG-Uo7v5-268" edge="1">
                    <mxGeometry width="50" height="50" relative="1" as="geometry">
                        <mxPoint x="1240" y="739.5799999999999" as="sourcePoint"/>
                        <mxPoint x="1260" y="739.69" as="targetPoint"/>
                    </mxGeometry>
                </mxCell>
                <mxCell id="83" value="" style="shape=flexArrow;endArrow=classic;html=1;endWidth=8.571428571428571;endSize=3.704761904761905;fillColor=#0050ef;strokeColor=#001DBC;" parent="2OSXexaAotzXnG-Uo7v5-268" edge="1">
                    <mxGeometry width="50" height="50" relative="1" as="geometry">
                        <mxPoint x="1080" y="879.5799999999999" as="sourcePoint"/>
                        <mxPoint x="1100" y="879.69" as="targetPoint"/>
                    </mxGeometry>
                </mxCell>
                <mxCell id="84" value="" style="shape=flexArrow;endArrow=classic;html=1;endWidth=8.571428571428571;endSize=3.704761904761905;fillColor=#0050ef;strokeColor=#001DBC;" parent="2OSXexaAotzXnG-Uo7v5-268" edge="1">
                    <mxGeometry width="50" height="50" relative="1" as="geometry">
                        <mxPoint x="910" y="979.5799999999999" as="sourcePoint"/>
                        <mxPoint x="930" y="979.69" as="targetPoint"/>
                    </mxGeometry>
                </mxCell>
                <mxCell id="85" value="" style="shape=flexArrow;endArrow=classic;html=1;endWidth=8.571428571428571;endSize=3.704761904761905;fillColor=#0050ef;strokeColor=#001DBC;" parent="2OSXexaAotzXnG-Uo7v5-268" edge="1">
                    <mxGeometry width="50" height="50" relative="1" as="geometry">
                        <mxPoint x="700" y="1049.58" as="sourcePoint"/>
                        <mxPoint x="720" y="1049.69" as="targetPoint"/>
                    </mxGeometry>
                </mxCell>
                <mxCell id="86" value="" style="shape=flexArrow;endArrow=classic;html=1;endWidth=8.571428571428571;endSize=3.704761904761905;fillColor=#0050ef;strokeColor=#001DBC;" parent="2OSXexaAotzXnG-Uo7v5-268" edge="1">
                    <mxGeometry width="50" height="50" relative="1" as="geometry">
                        <mxPoint x="540" y="1049.58" as="sourcePoint"/>
                        <mxPoint x="560" y="1049.69" as="targetPoint"/>
                    </mxGeometry>
                </mxCell>
                <mxCell id="87" value="" style="shape=flexArrow;endArrow=classic;html=1;endWidth=8.571428571428571;endSize=3.704761904761905;fillColor=#0050ef;strokeColor=#001DBC;" parent="2OSXexaAotzXnG-Uo7v5-268" edge="1">
                    <mxGeometry width="50" height="50" relative="1" as="geometry">
                        <mxPoint x="430" y="979.5799999999999" as="sourcePoint"/>
                        <mxPoint x="450" y="979.69" as="targetPoint"/>
                    </mxGeometry>
                </mxCell>
                <mxCell id="88" value="" style="shape=flexArrow;endArrow=classic;html=1;endWidth=8.571428571428571;endSize=3.704761904761905;fillColor=#0050ef;strokeColor=#001DBC;" parent="2OSXexaAotzXnG-Uo7v5-268" edge="1">
                    <mxGeometry width="50" height="50" relative="1" as="geometry">
                        <mxPoint x="350" y="879.5799999999999" as="sourcePoint"/>
                        <mxPoint x="370" y="879.69" as="targetPoint"/>
                    </mxGeometry>
                </mxCell>
                <mxCell id="89" value="" style="shape=flexArrow;endArrow=classic;html=1;endWidth=8.571428571428571;endSize=3.704761904761905;fillColor=#0050ef;strokeColor=#001DBC;" parent="2OSXexaAotzXnG-Uo7v5-268" edge="1">
                    <mxGeometry width="50" height="50" relative="1" as="geometry">
                        <mxPoint x="260" y="739.5799999999999" as="sourcePoint"/>
                        <mxPoint x="280" y="739.69" as="targetPoint"/>
                    </mxGeometry>
                </mxCell>
                <mxCell id="90" value="" style="shape=flexArrow;endArrow=classic;html=1;endWidth=8.571428571428571;endSize=3.704761904761905;fillColor=#0050ef;strokeColor=#001DBC;" parent="2OSXexaAotzXnG-Uo7v5-268" edge="1">
                    <mxGeometry width="50" height="50" relative="1" as="geometry">
                        <mxPoint x="180" y="559.5799999999999" as="sourcePoint"/>
                        <mxPoint x="200" y="559.69" as="targetPoint"/>
                    </mxGeometry>
                </mxCell>
                <mxCell id="99" value="" style="shape=flexArrow;endArrow=classic;html=1;endWidth=8.571428571428571;endSize=3.704761904761905;fillColor=#008a00;strokeColor=#005700;" parent="2OSXexaAotzXnG-Uo7v5-268" edge="1">
                    <mxGeometry width="50" height="50" relative="1" as="geometry">
                        <mxPoint x="850" y="1049.6599999999999" as="sourcePoint"/>
                        <mxPoint x="880" y="1010" as="targetPoint"/>
                        <Array as="points">
                            <mxPoint x="880" y="1050"/>
                        </Array>
                    </mxGeometry>
                </mxCell>
                <mxCell id="100" value="" style="shape=flexArrow;endArrow=classic;html=1;endWidth=8.571428571428571;endSize=3.704761904761905;fillColor=#008a00;strokeColor=#005700;" parent="2OSXexaAotzXnG-Uo7v5-268" edge="1">
                    <mxGeometry width="50" height="50" relative="1" as="geometry">
                        <mxPoint x="985" y="979.6599999999999" as="sourcePoint"/>
                        <mxPoint x="1045" y="930" as="targetPoint"/>
                        <Array as="points">
                            <mxPoint x="1045" y="980"/>
                        </Array>
                    </mxGeometry>
                </mxCell>
                <mxCell id="101" value="" style="shape=flexArrow;endArrow=classic;html=1;endWidth=8.571428571428571;endSize=3.704761904761905;fillColor=#008a00;strokeColor=#005700;" parent="2OSXexaAotzXnG-Uo7v5-268" edge="1">
                    <mxGeometry width="50" height="50" relative="1" as="geometry">
                        <mxPoint x="1150" y="880" as="sourcePoint"/>
                        <mxPoint x="1210" y="810" as="targetPoint"/>
                        <Array as="points">
                            <mxPoint x="1210" y="880"/>
                        </Array>
                    </mxGeometry>
                </mxCell>
                <mxCell id="102" value="" style="shape=flexArrow;endArrow=classic;html=1;endWidth=8.571428571428571;endSize=3.704761904761905;fillColor=#008a00;strokeColor=#005700;" parent="2OSXexaAotzXnG-Uo7v5-268" edge="1">
                    <mxGeometry width="50" height="50" relative="1" as="geometry">
                        <mxPoint x="1310" y="740" as="sourcePoint"/>
                        <mxPoint x="1355" y="650" as="targetPoint"/>
                        <Array as="points">
                            <mxPoint x="1355" y="740"/>
                        </Array>
                    </mxGeometry>
                </mxCell>
                <mxCell id="103" value="" style="ellipse;whiteSpace=wrap;html=1;aspect=fixed;fillColor=#ffcccc;strokeColor=#333333;" parent="2OSXexaAotzXnG-Uo7v5-268" vertex="1">
                    <mxGeometry x="1270" y="540" width="40" height="40" as="geometry"/>
                </mxCell>
                <mxCell id="104" value="" style="ellipse;whiteSpace=wrap;html=1;aspect=fixed;fillColor=#ffcccc;strokeColor=#333333;" parent="2OSXexaAotzXnG-Uo7v5-268" vertex="1">
                    <mxGeometry x="1105" y="720" width="40" height="40" as="geometry"/>
                </mxCell>
                <mxCell id="105" value="" style="ellipse;whiteSpace=wrap;html=1;aspect=fixed;fillColor=#ffcccc;strokeColor=#333333;" parent="2OSXexaAotzXnG-Uo7v5-268" vertex="1">
                    <mxGeometry x="940" y="860" width="40" height="40" as="geometry"/>
                </mxCell>
                <mxCell id="106" value="" style="ellipse;whiteSpace=wrap;html=1;aspect=fixed;fillColor=#ffcccc;strokeColor=#333333;" parent="2OSXexaAotzXnG-Uo7v5-268" vertex="1">
                    <mxGeometry x="740" y="960" width="40" height="40" as="geometry"/>
                </mxCell>
                <mxCell id="107" value="" style="rounded=0;whiteSpace=wrap;html=1;dashed=1;dashPattern=1 1;fillColor=#FFFFFF;strokeColor=#CCE5FF;strokeWidth=3;" parent="2OSXexaAotzXnG-Uo7v5-268" vertex="1">
                    <mxGeometry x="820" y="960" width="40" height="40" as="geometry"/>
                </mxCell>
                <mxCell id="109" value="" style="rounded=0;whiteSpace=wrap;html=1;dashed=1;dashPattern=1 1;fillColor=#FFFFFF;strokeColor=#CCE5FF;strokeWidth=3;" parent="2OSXexaAotzXnG-Uo7v5-268" vertex="1">
                    <mxGeometry x="1000" y="840" width="30" height="80" as="geometry"/>
                </mxCell>
                <mxCell id="110" value="" style="rounded=0;whiteSpace=wrap;html=1;dashed=1;dashPattern=1 1;fillColor=#FFFFFF;strokeColor=#CCE5FF;strokeWidth=3;" parent="2OSXexaAotzXnG-Uo7v5-268" vertex="1">
                    <mxGeometry x="1180" y="680" width="20" height="120" as="geometry"/>
                </mxCell>
                <mxCell id="112" value="" style="rounded=0;whiteSpace=wrap;html=1;dashed=1;dashPattern=1 1;fillColor=#FFFFFF;strokeColor=#CCE5FF;strokeWidth=3;" parent="2OSXexaAotzXnG-Uo7v5-268" vertex="1">
                    <mxGeometry x="1342.5" y="480" width="10" height="160" as="geometry"/>
                </mxCell>
                <mxCell id="124" value="" style="rounded=0;whiteSpace=wrap;html=1;fillColor=#cce5ff;strokeColor=#36393d;" parent="2OSXexaAotzXnG-Uo7v5-268" vertex="1">
                    <mxGeometry x="140" width="10" height="160" as="geometry"/>
                </mxCell>
                <mxCell id="125" value="" style="rounded=0;whiteSpace=wrap;html=1;fillColor=#cce5ff;strokeColor=#36393d;" parent="2OSXexaAotzXnG-Uo7v5-268" vertex="1">
                    <mxGeometry x="220" width="10" height="160" as="geometry"/>
                </mxCell>
                <mxCell id="126" value="" style="rounded=0;whiteSpace=wrap;html=1;fillColor=#cce5ff;strokeColor=#36393d;" parent="2OSXexaAotzXnG-Uo7v5-268" vertex="1">
                    <mxGeometry x="220" y="200" width="20" height="120" as="geometry"/>
                </mxCell>
                <mxCell id="127" value="" style="rounded=0;whiteSpace=wrap;html=1;fillColor=#cce5ff;strokeColor=#36393d;" parent="2OSXexaAotzXnG-Uo7v5-268" vertex="1">
                    <mxGeometry x="300" y="200" width="20" height="120" as="geometry"/>
                </mxCell>
                <mxCell id="128" value="" style="rounded=0;whiteSpace=wrap;html=1;fillColor=#cce5ff;strokeColor=#36393d;" parent="2OSXexaAotzXnG-Uo7v5-268" vertex="1">
                    <mxGeometry x="300" y="360" width="30" height="80" as="geometry"/>
                </mxCell>
                <mxCell id="129" value="" style="rounded=0;whiteSpace=wrap;html=1;fillColor=#cce5ff;strokeColor=#36393d;" parent="2OSXexaAotzXnG-Uo7v5-268" vertex="1">
                    <mxGeometry x="380" y="360" width="30" height="80" as="geometry"/>
                </mxCell>
                <mxCell id="130" value="" style="rounded=0;whiteSpace=wrap;html=1;fillColor=#cce5ff;strokeColor=#36393d;" parent="2OSXexaAotzXnG-Uo7v5-268" vertex="1">
                    <mxGeometry x="380" y="480" width="40" height="40" as="geometry"/>
                </mxCell>
                <mxCell id="131" value="" style="rounded=0;whiteSpace=wrap;html=1;fillColor=#cce5ff;strokeColor=#36393d;" parent="2OSXexaAotzXnG-Uo7v5-268" vertex="1">
                    <mxGeometry x="460" y="480" width="40" height="40" as="geometry"/>
                </mxCell>
                <mxCell id="132" value="" style="shape=flexArrow;endArrow=classic;html=1;endWidth=10.333333333333334;endSize=3.61;fillColor=#a20025;strokeColor=#6F0000;" parent="2OSXexaAotzXnG-Uo7v5-268" edge="1">
                    <mxGeometry width="50" height="50" relative="1" as="geometry">
                        <mxPoint x="224.82999999999993" y="170" as="sourcePoint"/>
                        <mxPoint x="225" y="190" as="targetPoint"/>
                    </mxGeometry>
                </mxCell>
                <mxCell id="133" value="" style="shape=flexArrow;endArrow=classic;html=1;endWidth=10.333333333333334;endSize=3.61;fillColor=#a20025;strokeColor=#6F0000;" parent="2OSXexaAotzXnG-Uo7v5-268" edge="1">
                    <mxGeometry width="50" height="50" relative="1" as="geometry">
                        <mxPoint x="309.75999999999976" y="330" as="sourcePoint"/>
                        <mxPoint x="309.92999999999984" y="350" as="targetPoint"/>
                    </mxGeometry>
                </mxCell>
                <mxCell id="134" value="" style="shape=flexArrow;endArrow=classic;html=1;endWidth=10.333333333333334;endSize=3.61;fillColor=#a20025;strokeColor=#6F0000;" parent="2OSXexaAotzXnG-Uo7v5-268" edge="1">
                    <mxGeometry width="50" height="50" relative="1" as="geometry">
                        <mxPoint x="394.7600000000002" y="450" as="sourcePoint"/>
                        <mxPoint x="394.9300000000003" y="470" as="targetPoint"/>
                    </mxGeometry>
                </mxCell>
                <mxCell id="135" value="" style="shape=flexArrow;endArrow=classic;html=1;endWidth=8.571428571428571;endSize=3.704761904761905;fillColor=#0050ef;strokeColor=#001DBC;" parent="2OSXexaAotzXnG-Uo7v5-268" edge="1">
                    <mxGeometry width="50" height="50" relative="1" as="geometry">
                        <mxPoint x="430" y="499.5799999999999" as="sourcePoint"/>
                        <mxPoint x="450" y="499.69000000000005" as="targetPoint"/>
                    </mxGeometry>
                </mxCell>
                <mxCell id="136" value="" style="shape=flexArrow;endArrow=classic;html=1;endWidth=8.571428571428571;endSize=3.704761904761905;fillColor=#0050ef;strokeColor=#001DBC;" parent="2OSXexaAotzXnG-Uo7v5-268" edge="1">
                    <mxGeometry width="50" height="50" relative="1" as="geometry">
                        <mxPoint x="350" y="399.5799999999999" as="sourcePoint"/>
                        <mxPoint x="370" y="399.69000000000005" as="targetPoint"/>
                    </mxGeometry>
                </mxCell>
                <mxCell id="137" value="" style="shape=flexArrow;endArrow=classic;html=1;endWidth=8.571428571428571;endSize=3.704761904761905;fillColor=#0050ef;strokeColor=#001DBC;" parent="2OSXexaAotzXnG-Uo7v5-268" edge="1">
                    <mxGeometry width="50" height="50" relative="1" as="geometry">
                        <mxPoint x="260" y="259.5799999999999" as="sourcePoint"/>
                        <mxPoint x="280" y="259.69000000000005" as="targetPoint"/>
                    </mxGeometry>
                </mxCell>
                <mxCell id="138" value="" style="shape=flexArrow;endArrow=classic;html=1;endWidth=8.571428571428571;endSize=3.704761904761905;fillColor=#0050ef;strokeColor=#001DBC;" parent="2OSXexaAotzXnG-Uo7v5-268" edge="1">
                    <mxGeometry width="50" height="50" relative="1" as="geometry">
                        <mxPoint x="180" y="79.57999999999993" as="sourcePoint"/>
                        <mxPoint x="200" y="79.69000000000005" as="targetPoint"/>
                    </mxGeometry>
                </mxCell>
                <mxCell id="139" value="" style="endArrow=classic;html=1;fillColor=#bac8d3;strokeColor=#91AB80;jumpStyle=none;targetPerimeterSpacing=0;dashed=1;strokeWidth=3;entryX=0.5;entryY=0;entryDx=0;entryDy=0;exitX=1;exitY=0.5;exitDx=0;exitDy=0;" parent="2OSXexaAotzXnG-Uo7v5-268" source="125" target="103" edge="1">
                    <mxGeometry width="50" height="50" relative="1" as="geometry">
                        <mxPoint x="240" y="79.5" as="sourcePoint"/>
                        <mxPoint x="1270" y="80" as="targetPoint"/>
                        <Array as="points">
                            <mxPoint x="1290" y="80"/>
                        </Array>
                    </mxGeometry>
                </mxCell>
                <mxCell id="141" value="" style="endArrow=classic;html=1;fillColor=#bac8d3;strokeColor=#91AB80;jumpStyle=none;targetPerimeterSpacing=0;dashed=1;strokeWidth=3;entryX=0.5;entryY=0;entryDx=0;entryDy=0;exitX=1;exitY=0.5;exitDx=0;exitDy=0;" parent="2OSXexaAotzXnG-Uo7v5-268" source="127" target="104" edge="1">
                    <mxGeometry width="50" height="50" relative="1" as="geometry">
                        <mxPoint x="330" y="259.5" as="sourcePoint"/>
                        <mxPoint x="1105" y="260" as="targetPoint"/>
                        <Array as="points">
                            <mxPoint x="1125" y="260"/>
                        </Array>
                    </mxGeometry>
                </mxCell>
                <mxCell id="142" value="" style="endArrow=classic;html=1;fillColor=#bac8d3;strokeColor=#91AB80;jumpStyle=none;targetPerimeterSpacing=0;dashed=1;strokeWidth=3;entryX=0.5;entryY=0;entryDx=0;entryDy=0;exitX=1;exitY=0.5;exitDx=0;exitDy=0;" parent="2OSXexaAotzXnG-Uo7v5-268" target="105" edge="1">
                    <mxGeometry width="50" height="50" relative="1" as="geometry">
                        <mxPoint x="410" y="400" as="sourcePoint"/>
                        <mxPoint x="1215" y="860" as="targetPoint"/>
                        <Array as="points">
                            <mxPoint x="960" y="400"/>
                        </Array>
                    </mxGeometry>
                </mxCell>
                <mxCell id="143" value="" style="endArrow=classic;html=1;fillColor=#bac8d3;strokeColor=#91AB80;jumpStyle=none;targetPerimeterSpacing=0;dashed=1;strokeWidth=3;entryX=0.5;entryY=0;entryDx=0;entryDy=0;" parent="2OSXexaAotzXnG-Uo7v5-268" target="106" edge="1">
                    <mxGeometry width="50" height="50" relative="1" as="geometry">
                        <mxPoint x="500" y="500" as="sourcePoint"/>
                        <mxPoint x="1050" y="960" as="targetPoint"/>
                        <Array as="points">
                            <mxPoint x="760" y="500"/>
                        </Array>
                    </mxGeometry>
                </mxCell>
                <mxCell id="147" value="" style="shape=flexArrow;endArrow=classic;html=1;endWidth=8.571428571428571;endSize=3.704761904761905;fillColor=#ffcccc;strokeColor=#36393d;" parent="2OSXexaAotzXnG-Uo7v5-268" edge="1">
                    <mxGeometry width="50" height="50" relative="1" as="geometry">
                        <mxPoint x="790" y="979.7599999999998" as="sourcePoint"/>
                        <mxPoint x="810" y="979.8699999999999" as="targetPoint"/>
                    </mxGeometry>
                </mxCell>
                <mxCell id="148" value="" style="shape=flexArrow;endArrow=classic;html=1;endWidth=8.571428571428571;endSize=3.704761904761905;fillColor=#ffcccc;strokeColor=#36393d;" parent="2OSXexaAotzXnG-Uo7v5-268" edge="1">
                    <mxGeometry width="50" height="50" relative="1" as="geometry">
                        <mxPoint x="980" y="879.7599999999998" as="sourcePoint"/>
                        <mxPoint x="1000" y="879.8699999999999" as="targetPoint"/>
                    </mxGeometry>
                </mxCell>
                <mxCell id="149" value="" style="shape=flexArrow;endArrow=classic;html=1;endWidth=8.571428571428571;endSize=3.704761904761905;fillColor=#ffcccc;strokeColor=#36393d;" parent="2OSXexaAotzXnG-Uo7v5-268" edge="1">
                    <mxGeometry width="50" height="50" relative="1" as="geometry">
                        <mxPoint x="1150" y="739.7599999999998" as="sourcePoint"/>
                        <mxPoint x="1170" y="739.8699999999999" as="targetPoint"/>
                    </mxGeometry>
                </mxCell>
                <mxCell id="150" value="" style="shape=flexArrow;endArrow=classic;html=1;endWidth=8.571428571428571;endSize=3.704761904761905;fillColor=#ffcccc;strokeColor=#36393d;" parent="2OSXexaAotzXnG-Uo7v5-268" edge="1">
                    <mxGeometry width="50" height="50" relative="1" as="geometry">
                        <mxPoint x="1310" y="559.9499999999998" as="sourcePoint"/>
                        <mxPoint x="1330" y="560.06" as="targetPoint"/>
                    </mxGeometry>
                </mxCell>
                <mxCell id="154" value="Frame t" style="rounded=1;whiteSpace=wrap;html=1;fontColor=#000000;fillColor=#EEEEEE;strokeColor=#000000;" parent="2OSXexaAotzXnG-Uo7v5-268" vertex="1">
                    <mxGeometry y="540" width="100" height="40" as="geometry"/>
                </mxCell>
                <mxCell id="168" value="" style="rounded=0;whiteSpace=wrap;html=1;fillColor=#cce5ff;strokeColor=#36393d;" parent="2OSXexaAotzXnG-Uo7v5-268" vertex="1">
                    <mxGeometry x="1500" y="480" width="10" height="160" as="geometry"/>
                </mxCell>
                <mxCell id="169" value="" style="shape=flexArrow;endArrow=classic;html=1;endWidth=8.571428571428571;endSize=3.704761904761905;fillColor=#76608a;strokeColor=#432D57;" parent="2OSXexaAotzXnG-Uo7v5-268" edge="1">
                    <mxGeometry width="50" height="50" relative="1" as="geometry">
                        <mxPoint x="1469.9999999999995" y="559.5799999999999" as="sourcePoint"/>
                        <mxPoint x="1489.9999999999995" y="559.69" as="targetPoint"/>
                    </mxGeometry>
                </mxCell>
                <mxCell id="179" value="" style="endArrow=classic;html=1;fontSize=10;fontColor=#333333;targetPerimeterSpacing=0;strokeColor=#000000;strokeWidth=3;fillColor=default;jumpStyle=none;" parent="2OSXexaAotzXnG-Uo7v5-268" edge="1">
                    <mxGeometry width="50" height="50" relative="1" as="geometry">
                        <mxPoint x="110.00000000000023" y="79.99999999999977" as="sourcePoint"/>
                        <mxPoint x="130.00000000000023" y="79.99999999999977" as="targetPoint"/>
                    </mxGeometry>
                </mxCell>
                <mxCell id="180" value="" style="endArrow=classic;html=1;fontSize=10;fontColor=#333333;targetPerimeterSpacing=0;strokeColor=#000000;strokeWidth=3;fillColor=default;jumpStyle=none;fontStyle=1" parent="2OSXexaAotzXnG-Uo7v5-268" edge="1">
                    <mxGeometry width="50" height="50" relative="1" as="geometry">
                        <mxPoint x="110.00000000000023" y="559.5699999999997" as="sourcePoint"/>
                        <mxPoint x="130.00000000000023" y="559.5699999999997" as="targetPoint"/>
                    </mxGeometry>
                </mxCell>
                <mxCell id="181" value="" style="endArrow=classic;html=1;fillColor=default;strokeColor=#A1A1A1;jumpStyle=none;targetPerimeterSpacing=0;dashed=1;strokeWidth=3;entryX=0;entryY=0.5;entryDx=0;entryDy=0;" parent="2OSXexaAotzXnG-Uo7v5-268" edge="1">
                    <mxGeometry width="50" height="50" relative="1" as="geometry">
                        <mxPoint x="240" y="559.4999999999995" as="sourcePoint"/>
                        <mxPoint x="1270" y="560" as="targetPoint"/>
                    </mxGeometry>
                </mxCell>
                <mxCell id="182" value="" style="endArrow=classic;html=1;fillColor=default;strokeColor=#A1A1A1;jumpStyle=none;targetPerimeterSpacing=0;dashed=1;strokeWidth=3;entryX=0;entryY=0.5;entryDx=0;entryDy=0;" parent="2OSXexaAotzXnG-Uo7v5-268" edge="1">
                    <mxGeometry width="50" height="50" relative="1" as="geometry">
                        <mxPoint x="330" y="739.5000000000005" as="sourcePoint"/>
                        <mxPoint x="1105" y="740" as="targetPoint"/>
                    </mxGeometry>
                </mxCell>
                <mxCell id="54" value="Legende" style="swimlane;fillColor=#f5f5f5;fontColor=#333333;strokeColor=#666666;gradientColor=none;labelBackgroundColor=none;swimlaneLine=1;" parent="2OSXexaAotzXnG-Uo7v5-268" vertex="1">
                    <mxGeometry x="1320" y="830" width="280" height="380" as="geometry">
                        <mxRectangle x="1600" y="2120" width="80" height="23" as="alternateBounds"/>
                    </mxGeometry>
                </mxCell>
                <mxCell id="51" value="" style="shape=flexArrow;endArrow=classic;html=1;endWidth=8.571428571428571;endSize=3.704761904761905;fillColor=#0050ef;strokeColor=#001DBC;" parent="54" edge="1">
                    <mxGeometry width="50" height="50" relative="1" as="geometry">
                        <mxPoint x="40" y="39.89" as="sourcePoint"/>
                        <mxPoint x="60" y="40" as="targetPoint"/>
                    </mxGeometry>
                </mxCell>
                <mxCell id="55" value="Conv 3x3, ReLU" style="text;html=1;align=left;verticalAlign=middle;resizable=0;points=[];autosize=1;strokeColor=none;fillColor=none;fontColor=#333333;" parent="54" vertex="1">
                    <mxGeometry x="80" y="30" width="100" height="20" as="geometry"/>
                </mxCell>
                <mxCell id="65" value="" style="endArrow=classic;html=1;fillColor=default;strokeColor=#A1A1A1;jumpStyle=none;targetPerimeterSpacing=0;dashed=1;strokeWidth=3;" parent="54" edge="1">
                    <mxGeometry width="50" height="50" relative="1" as="geometry">
                        <mxPoint x="20" y="79.5" as="sourcePoint"/>
                        <mxPoint x="70" y="80.5" as="targetPoint"/>
                    </mxGeometry>
                </mxCell>
                <mxCell id="66" value="Copy and crop" style="text;html=1;align=left;verticalAlign=middle;resizable=0;points=[];autosize=1;strokeColor=none;fillColor=none;fontColor=#333333;" parent="54" vertex="1">
                    <mxGeometry x="80" y="70" width="90" height="20" as="geometry"/>
                </mxCell>
                <mxCell id="74" value="" style="shape=flexArrow;endArrow=classic;html=1;endWidth=10.333333333333334;endSize=3.61;fillColor=#a20025;strokeColor=#6F0000;" parent="54" edge="1">
                    <mxGeometry width="50" height="50" relative="1" as="geometry">
                        <mxPoint x="40" y="119.9" as="sourcePoint"/>
                        <mxPoint x="60" y="119.9" as="targetPoint"/>
                    </mxGeometry>
                </mxCell>
                <mxCell id="91" value="Max pool 2x2" style="text;html=1;align=left;verticalAlign=middle;resizable=0;points=[];autosize=1;strokeColor=none;fillColor=none;fontColor=#333333;" parent="54" vertex="1">
                    <mxGeometry x="80" y="110" width="90" height="20" as="geometry"/>
                </mxCell>
                <mxCell id="95" value="" style="shape=flexArrow;endArrow=classic;html=1;endWidth=10.333333333333334;endSize=3.61;fillColor=#008a00;strokeColor=#005700;" parent="54" edge="1">
                    <mxGeometry width="50" height="50" relative="1" as="geometry">
                        <mxPoint x="40.00000000000023" y="160" as="sourcePoint"/>
                        <mxPoint x="60" y="160" as="targetPoint"/>
                    </mxGeometry>
                </mxCell>
                <mxCell id="96" value="Up conv 2x2" style="text;html=1;align=left;verticalAlign=middle;resizable=0;points=[];autosize=1;strokeColor=none;fillColor=none;fontColor=#333333;" parent="54" vertex="1">
                    <mxGeometry x="80" y="150" width="80" height="20" as="geometry"/>
                </mxCell>
                <mxCell id="113" value="" style="rounded=0;whiteSpace=wrap;html=1;dashed=1;dashPattern=1 1;strokeColor=#CCE5FF;strokeWidth=3;fillColor=#FFFFFF;" parent="54" vertex="1">
                    <mxGeometry x="40" y="190" width="20" height="20" as="geometry"/>
                </mxCell>
                <mxCell id="114" value="Concatenate" style="text;html=1;align=left;verticalAlign=middle;resizable=0;points=[];autosize=1;strokeColor=none;fillColor=none;fontColor=#333333;" parent="54" vertex="1">
                    <mxGeometry x="80" y="190" width="80" height="20" as="geometry"/>
                </mxCell>
                <mxCell id="144" value="" style="endArrow=classic;html=1;fillColor=#bac8d3;strokeColor=#91AB80;jumpStyle=none;targetPerimeterSpacing=0;dashed=1;strokeWidth=3;" parent="54" edge="1">
                    <mxGeometry width="50" height="50" relative="1" as="geometry">
                        <mxPoint x="20" y="239.5" as="sourcePoint"/>
                        <mxPoint x="70" y="240.5" as="targetPoint"/>
                    </mxGeometry>
                </mxCell>
                <mxCell id="146" value="Gating signal (query)" style="text;html=1;align=left;verticalAlign=middle;resizable=0;points=[];autosize=1;strokeColor=none;fillColor=none;fontColor=#333333;" parent="54" vertex="1">
                    <mxGeometry x="80" y="230" width="130" height="20" as="geometry"/>
                </mxCell>
                <mxCell id="170" value="" style="shape=flexArrow;endArrow=classic;html=1;endWidth=8.571428571428571;endSize=3.704761904761905;fillColor=#76608a;strokeColor=#432D57;" parent="54" edge="1">
                    <mxGeometry width="50" height="50" relative="1" as="geometry">
                        <mxPoint x="39.999999999999545" y="279.8899999999999" as="sourcePoint"/>
                        <mxPoint x="59.999999999999545" y="280" as="targetPoint"/>
                    </mxGeometry>
                </mxCell>
                <mxCell id="171" value="Conv 1x1" style="text;html=1;align=left;verticalAlign=middle;resizable=0;points=[];autosize=1;strokeColor=none;fillColor=none;fontColor=#333333;" parent="54" vertex="1">
                    <mxGeometry x="80" y="270" width="70" height="20" as="geometry"/>
                </mxCell>
                <mxCell id="186" value="Attention module" style="text;html=1;align=left;verticalAlign=middle;resizable=0;points=[];autosize=1;strokeColor=none;fillColor=none;fontColor=#333333;" parent="54" vertex="1">
                    <mxGeometry x="80" y="310" width="110" height="20" as="geometry"/>
                </mxCell>
                <mxCell id="187" value="" style="ellipse;whiteSpace=wrap;html=1;aspect=fixed;fillColor=#ffcccc;strokeColor=#333333;" parent="54" vertex="1">
                    <mxGeometry x="40" y="310" width="20" height="20" as="geometry"/>
                </mxCell>
            </root>
        </mxGraphModel>
    </diagram>
</mxfile>